<?xml version="1.0" standalone="no"?>
<!DOCTYPE svg PUBLIC "-//W3C//DTD SVG 20010904//EN"
 "http://www.w3.org/TR/2001/REC-SVG-20010904/DTD/svg10.dtd">
<svg version="1.0" xmlns="http://www.w3.org/2000/svg"
 width="553.000000pt" height="553.000000pt" viewBox="0 0 553.000000 553.000000"
 preserveAspectRatio="xMidYMid meet">
<metadata>
Created by potrace 1.14, written by Peter Selinger 2001-2017
</metadata>
<g transform="translate(0.000000,553.000000) scale(0.100000,-0.100000)"
fill="#000000" stroke="none">
<path d="M264 5470 c-51 -7 -126 -51 -154 -91 -12 -16 -27 -51 -34 -77 -9 -36
-12 -643 -11 -2557 1 -2381 2 -2512 19 -2552 10 -24 34 -57 54 -74 74 -66
-141 -61 2617 -61 2028 0 2520 3 2555 13 53 16 113 74 134 131 15 39 16 268
14 2579 l-3 2536 -30 49 c-23 37 -45 56 -87 78 l-57 29 -2488 1 c-1368 0
-2506 -1 -2529 -4z"/>
</g>
</svg>
